<svg width="17" height="17" viewBox="0 0 17 17" fill="none" xmlns="http://www.w3.org/2000/svg">
<path d="M11.3337 9.1388V12.1138C11.3337 14.593 10.342 15.5846 7.86283 15.5846H4.88783C2.40866 15.5846 1.41699 14.593 1.41699 12.1138V9.1388C1.41699 6.65964 2.40866 5.66797 4.88783 5.66797H7.86283C10.342 5.66797 11.3337 6.65964 11.3337 9.1388Z" stroke="#9D7334" stroke-width="1.5" stroke-linecap="round" stroke-linejoin="round"/>
<path d="M15.5837 4.8888V7.8638C15.5837 10.343 14.592 11.3346 12.1128 11.3346H11.3337V9.1388C11.3337 6.65963 10.342 5.66797 7.86283 5.66797H5.66699V4.8888C5.66699 2.40964 6.65866 1.41797 9.13783 1.41797H12.1128C14.592 1.41797 15.5837 2.40964 15.5837 4.8888Z" stroke="#9D7334" stroke-width="1.5" stroke-linecap="round" stroke-linejoin="round"/>
</svg>
